<?xml version="1.0" encoding="UTF-8"?>
<svg id="Layer_2" data-name="Layer 2" xmlns="http://www.w3.org/2000/svg" viewBox="0 0 912.16 237.72">
  <defs>
    <style>
      .cls-1 {
        fill: #19e06c;
        fill-rule: evenodd;
      }
    </style>
  </defs>
  <g id="Layer_1-2" data-name="Layer 1">
    <path class="cls-1" d="M17.14,237.72c19.89-2.6,50.25-9.07,52.2-10.68,127.86-105.13-14.99,57.81,125.44-57.14,59.92-49.04,38.49-28.36,85.57,11.93,16.64,14.27,34.64-23.32,17.52-53.37-.5-.87,35.21-43.6,35.72-43.94-.43-3.27,13.88,70.54,13.13,19.43,0-.36,10.31-35.92,16.86-36.34,14.16-.91-5.98-13.58,18.36-28.8,5.85-3.65,13.94-22.19,15.37-25.82,.24,.36,37.23,33.52,42.84,40.33,6.1,7.38,38.54,14.91,37.34,40.83-.07,1.43,11.95,27.31,11.18,41.08-.65,11.79,32.03,25.84,44,55.47,15.34,37.97-4.14-36.2,11.55-12.3,12.76,19.49,21.77,12.44,43.18,44.08,2.37,3.47,8.27,11.65,11.98,15.24h3.1c-.25-1.73-1.3-4.94-3.49-10.12-3.55-8.4-7.38-39.58-12.03-42.45-7.99-4.9-38.75-24.89-38.65-31.34,.5-30.92,40.23,22.05,29.73,.22-20.11-41.82-11.29-14.65-22.48-20.8,5.09-6.43,1.64-10.58,3.06-14.49,7.69-2.56,9.01,1.15-8.81-15.82-18.95-18.02,5.72-26.28-4.59-49-4.41-9.69,11.74-8.77,22.64,.08,5.59,4.56,46.74,22.65,73.7,33.78,21.38,24.97,46.67,41.64,75.86,50.01-22.27-12.48-40.53-26.38-54.8-41.74,1.02,.34,1.76,.54,2.16,.62,31.58,5.18,23.74,10.96,42.52,21.47,12.06,1.63,37.17,31.64,71.49,40.33,18.16,4.62,36.9,37.19,56.48,51.15,37.09,26.42,11.78,12.88,52.33,24.71,3.99,1.17,7.37,2.3,10.35,3.39h14.23c-21.95-7.52-35.67-26.32-51.33-31.75-30.86-10.64-46.55-33.64-66.51-56.19-21.07-23.82-50.98-21.24-61.92-34.49-7.51-9.11-51.43-32.47-63.47-36.42-.3-.28-1.08-.44-1.58-.79-1.64-1.11-2.44-1.11-3.63-1.77-2.75-1.57-3.57,.04-6.54-.02-1.12,0-4.88-2.38-4.99-2.7-.33-.18-1.79-.79-1.99-.95-1.87-1.57-6.79-5.06-9.11-5.3-1.65-.16-4.57-2.14-5.77-2.52-3.2-1.05-4.16-3.45-8.74-4.23-3.59-.6-8.2-1.79-11.33-3.69,.04-.38-38.1-11.05-40.17-11.59-.38-.08-1.25-.44-2.37-.95-7.99-8.97-20.94-10.8-30.99-16.45-4.63-2.58-22.96,7.2-29.43,11.39-3.4,2.22-5.22,2.18-7.43,4.05-1.36,1.15-11.09,5.44-12.66,4.07-1.37-1.21-.47-.79-1.85-1.09-5.68-1.25-4.45,1.99-7.21,2.38-4.9,.67-2.82,1.39-5.31,2.26-4.12,1.47-1.57,2.5-5.9,2.42-3.33-5-12.73-6.39-17.14-12.98-.97-1.47-9.22-8.83-11.85-8.89-3.33-.04-12.79-9.8-18.1-11.55-.05-.02-6.23-4.37-6.57-4.66-.05-.04-4.71-2.1-5.95-3.22-1.67-1.53-7.68-3.99-12.36-5.26-2.05-1.19-4.11-2.2-6.05-2.66-7-1.71-7.73-5.74-12.77-3.53-10.16,4.41-7.9,2.54-18.79,9.66-1.03-.14-6.71,.99-7.27,1.53-2.91,2.8-5.05,6.09-8.3,6.03-5.82-.1-3.97,1.17-10.58,4.62-5.58,2.96-6.7,5.12-12.8,7.66-2.71,1.15-9.12,7.18-11.83,6.89-1.63,.99-4.34-1.25-7.53,3.67-.58,.89-4.18,.79-7.52,4.98-.14,.18-3.56,1.85-4.5,2.82-5.77,5.9-2.66,2.28-5.27,3.75-3.67,2.1-7.55,4.39-11.45,5.93-7.75,2.98-7.42,5.22-11.15,7.42-4.94,2.92-5.26,4.64-11.59,6.83-3.41,1.21-14.62,10.02-18.32,10.68-3.56,.6-16.66,12.9-21.81,15.14-.4,.2-1.64,1.13-1.99,1.45-7.57,.91-10.13,6.09-16.62,9.19-2.96,1.41-3.62,3.25-7.28,4.25-5.2,1.39-12.72,9.07-14.88,9.8-4.37,1.51-11.47,8.14-15.49,7.76-.06-.02-12.1,6.75-12.43,7.24-.33,.46-.76,.62-.74,1.07-4.43,3.47-1.56-2.62-10.05,7.44-5.43,6.43-19.52,10.74-28.49,20.7-2,2.22-2.84-3.12-12.71,11.59-8.76,13.04-16.69,11.37-27.75,20.2-8.27,6.59-13.82,3.75-26.29,13.71-8.55,6.81-17.96,12.66-27.39,17.68-3.66,1.98-6.64,6.21-10.31,7.42H17.14Z"/>
  </g>
</svg>